<mxfile host="app.diagrams.net" modified="2021-10-21T14:27:41.765Z" agent="5.0 (X11)" etag="RyCEyO4q2YpsCYqxOA2f" version="15.5.2" type="github">
  <diagram id="D28bbQQ5G0SR2hDeYNH8" name="Page-1">
    <mxGraphModel dx="2340" dy="703" grid="0" gridSize="10" guides="1" tooltips="1" connect="1" arrows="1" fold="1" page="1" pageScale="1" pageWidth="1100" pageHeight="850" background="none" math="0" shadow="1">
      <root>
        <mxCell id="0" />
        <mxCell id="1" parent="0" />
        <mxCell id="7BTVLu-EwjG0xCljd36N-1" value="tblShop" style="shape=table;startSize=30;container=1;collapsible=1;childLayout=tableLayout;fixedRows=1;rowLines=0;fontStyle=1;align=center;resizeLast=1;strokeColor=default;" parent="1" vertex="1">
          <mxGeometry x="349" y="13" width="330" height="370" as="geometry" />
        </mxCell>
        <mxCell id="7BTVLu-EwjG0xCljd36N-2" value="" style="shape=partialRectangle;collapsible=0;dropTarget=0;pointerEvents=0;fillColor=none;top=0;left=0;bottom=1;right=0;points=[[0,0.5],[1,0.5]];portConstraint=eastwest;strokeColor=default;" parent="7BTVLu-EwjG0xCljd36N-1" vertex="1">
          <mxGeometry y="30" width="330" height="30" as="geometry" />
        </mxCell>
        <mxCell id="7BTVLu-EwjG0xCljd36N-3" value="PK" style="shape=partialRectangle;connectable=0;fillColor=none;top=0;left=0;bottom=0;right=0;fontStyle=1;overflow=hidden;strokeColor=default;" parent="7BTVLu-EwjG0xCljd36N-2" vertex="1">
          <mxGeometry width="30" height="30" as="geometry">
            <mxRectangle width="30" height="30" as="alternateBounds" />
          </mxGeometry>
        </mxCell>
        <mxCell id="7BTVLu-EwjG0xCljd36N-4" value="id" style="shape=partialRectangle;connectable=0;fillColor=none;top=0;left=0;bottom=0;right=0;align=left;spacingLeft=6;fontStyle=5;overflow=hidden;strokeColor=default;" parent="7BTVLu-EwjG0xCljd36N-2" vertex="1">
          <mxGeometry x="30" width="150" height="30" as="geometry">
            <mxRectangle width="150" height="30" as="alternateBounds" />
          </mxGeometry>
        </mxCell>
        <mxCell id="7BTVLu-EwjG0xCljd36N-24" value="int" style="shape=partialRectangle;connectable=0;fillColor=none;top=0;left=0;bottom=0;right=0;align=left;spacingLeft=6;fontStyle=5;overflow=hidden;strokeColor=default;" parent="7BTVLu-EwjG0xCljd36N-2" vertex="1">
          <mxGeometry x="180" width="150" height="30" as="geometry">
            <mxRectangle width="150" height="30" as="alternateBounds" />
          </mxGeometry>
        </mxCell>
        <mxCell id="7BTVLu-EwjG0xCljd36N-5" value="" style="shape=partialRectangle;collapsible=0;dropTarget=0;pointerEvents=0;fillColor=none;top=0;left=0;bottom=0;right=0;points=[[0,0.5],[1,0.5]];portConstraint=eastwest;strokeColor=default;" parent="7BTVLu-EwjG0xCljd36N-1" vertex="1">
          <mxGeometry y="60" width="330" height="30" as="geometry" />
        </mxCell>
        <mxCell id="7BTVLu-EwjG0xCljd36N-6" value="" style="shape=partialRectangle;connectable=0;fillColor=none;top=0;left=0;bottom=0;right=0;editable=1;overflow=hidden;strokeColor=default;" parent="7BTVLu-EwjG0xCljd36N-5" vertex="1">
          <mxGeometry width="30" height="30" as="geometry">
            <mxRectangle width="30" height="30" as="alternateBounds" />
          </mxGeometry>
        </mxCell>
        <mxCell id="7BTVLu-EwjG0xCljd36N-7" value="shopName" style="shape=partialRectangle;connectable=0;fillColor=none;top=0;left=0;bottom=0;right=0;align=left;spacingLeft=6;overflow=hidden;strokeColor=default;" parent="7BTVLu-EwjG0xCljd36N-5" vertex="1">
          <mxGeometry x="30" width="150" height="30" as="geometry">
            <mxRectangle width="150" height="30" as="alternateBounds" />
          </mxGeometry>
        </mxCell>
        <mxCell id="7BTVLu-EwjG0xCljd36N-25" value="string" style="shape=partialRectangle;connectable=0;fillColor=none;top=0;left=0;bottom=0;right=0;align=left;spacingLeft=6;overflow=hidden;strokeColor=default;" parent="7BTVLu-EwjG0xCljd36N-5" vertex="1">
          <mxGeometry x="180" width="150" height="30" as="geometry">
            <mxRectangle width="150" height="30" as="alternateBounds" />
          </mxGeometry>
        </mxCell>
        <mxCell id="7BTVLu-EwjG0xCljd36N-8" value="" style="shape=partialRectangle;collapsible=0;dropTarget=0;pointerEvents=0;fillColor=none;top=0;left=0;bottom=0;right=0;points=[[0,0.5],[1,0.5]];portConstraint=eastwest;strokeColor=default;" parent="7BTVLu-EwjG0xCljd36N-1" vertex="1">
          <mxGeometry y="90" width="330" height="30" as="geometry" />
        </mxCell>
        <mxCell id="7BTVLu-EwjG0xCljd36N-9" value="FK" style="shape=partialRectangle;connectable=0;fillColor=none;top=0;left=0;bottom=0;right=0;editable=1;overflow=hidden;fontStyle=1;strokeColor=default;" parent="7BTVLu-EwjG0xCljd36N-8" vertex="1">
          <mxGeometry width="30" height="30" as="geometry">
            <mxRectangle width="30" height="30" as="alternateBounds" />
          </mxGeometry>
        </mxCell>
        <mxCell id="7BTVLu-EwjG0xCljd36N-10" value="ownerid" style="shape=partialRectangle;connectable=0;fillColor=none;top=0;left=0;bottom=0;right=0;align=left;spacingLeft=6;overflow=hidden;strokeColor=default;" parent="7BTVLu-EwjG0xCljd36N-8" vertex="1">
          <mxGeometry x="30" width="150" height="30" as="geometry">
            <mxRectangle width="150" height="30" as="alternateBounds" />
          </mxGeometry>
        </mxCell>
        <mxCell id="7BTVLu-EwjG0xCljd36N-26" value="int" style="shape=partialRectangle;connectable=0;fillColor=none;top=0;left=0;bottom=0;right=0;align=left;spacingLeft=6;overflow=hidden;strokeColor=default;" parent="7BTVLu-EwjG0xCljd36N-8" vertex="1">
          <mxGeometry x="180" width="150" height="30" as="geometry">
            <mxRectangle width="150" height="30" as="alternateBounds" />
          </mxGeometry>
        </mxCell>
        <mxCell id="7BTVLu-EwjG0xCljd36N-11" value="" style="shape=partialRectangle;collapsible=0;dropTarget=0;pointerEvents=0;fillColor=none;top=0;left=0;bottom=0;right=0;points=[[0,0.5],[1,0.5]];portConstraint=eastwest;strokeColor=default;" parent="7BTVLu-EwjG0xCljd36N-1" vertex="1">
          <mxGeometry y="120" width="330" height="30" as="geometry" />
        </mxCell>
        <mxCell id="7BTVLu-EwjG0xCljd36N-12" value="" style="shape=partialRectangle;connectable=0;fillColor=none;top=0;left=0;bottom=0;right=0;editable=1;overflow=hidden;strokeColor=default;" parent="7BTVLu-EwjG0xCljd36N-11" vertex="1">
          <mxGeometry width="30" height="30" as="geometry">
            <mxRectangle width="30" height="30" as="alternateBounds" />
          </mxGeometry>
        </mxCell>
        <mxCell id="7BTVLu-EwjG0xCljd36N-13" value="longitude" style="shape=partialRectangle;connectable=0;fillColor=none;top=0;left=0;bottom=0;right=0;align=left;spacingLeft=6;overflow=hidden;strokeColor=default;" parent="7BTVLu-EwjG0xCljd36N-11" vertex="1">
          <mxGeometry x="30" width="150" height="30" as="geometry">
            <mxRectangle width="150" height="30" as="alternateBounds" />
          </mxGeometry>
        </mxCell>
        <mxCell id="7BTVLu-EwjG0xCljd36N-27" value="double" style="shape=partialRectangle;connectable=0;fillColor=none;top=0;left=0;bottom=0;right=0;align=left;spacingLeft=6;overflow=hidden;strokeColor=default;" parent="7BTVLu-EwjG0xCljd36N-11" vertex="1">
          <mxGeometry x="180" width="150" height="30" as="geometry">
            <mxRectangle width="150" height="30" as="alternateBounds" />
          </mxGeometry>
        </mxCell>
        <mxCell id="7BTVLu-EwjG0xCljd36N-28" style="shape=partialRectangle;collapsible=0;dropTarget=0;pointerEvents=0;fillColor=none;top=0;left=0;bottom=0;right=0;points=[[0,0.5],[1,0.5]];portConstraint=eastwest;strokeColor=default;" parent="7BTVLu-EwjG0xCljd36N-1" vertex="1">
          <mxGeometry y="150" width="330" height="30" as="geometry" />
        </mxCell>
        <mxCell id="7BTVLu-EwjG0xCljd36N-29" style="shape=partialRectangle;connectable=0;fillColor=none;top=0;left=0;bottom=0;right=0;editable=1;overflow=hidden;strokeColor=default;" parent="7BTVLu-EwjG0xCljd36N-28" vertex="1">
          <mxGeometry width="30" height="30" as="geometry">
            <mxRectangle width="30" height="30" as="alternateBounds" />
          </mxGeometry>
        </mxCell>
        <mxCell id="7BTVLu-EwjG0xCljd36N-30" value="latitude" style="shape=partialRectangle;connectable=0;fillColor=none;top=0;left=0;bottom=0;right=0;align=left;spacingLeft=6;overflow=hidden;strokeColor=default;" parent="7BTVLu-EwjG0xCljd36N-28" vertex="1">
          <mxGeometry x="30" width="150" height="30" as="geometry">
            <mxRectangle width="150" height="30" as="alternateBounds" />
          </mxGeometry>
        </mxCell>
        <mxCell id="7BTVLu-EwjG0xCljd36N-31" value="double" style="shape=partialRectangle;connectable=0;fillColor=none;top=0;left=0;bottom=0;right=0;align=left;spacingLeft=6;overflow=hidden;strokeColor=default;" parent="7BTVLu-EwjG0xCljd36N-28" vertex="1">
          <mxGeometry x="180" width="150" height="30" as="geometry">
            <mxRectangle width="150" height="30" as="alternateBounds" />
          </mxGeometry>
        </mxCell>
        <mxCell id="7BTVLu-EwjG0xCljd36N-32" style="shape=partialRectangle;collapsible=0;dropTarget=0;pointerEvents=0;fillColor=none;top=0;left=0;bottom=0;right=0;points=[[0,0.5],[1,0.5]];portConstraint=eastwest;strokeColor=default;" parent="7BTVLu-EwjG0xCljd36N-1" vertex="1">
          <mxGeometry y="180" width="330" height="30" as="geometry" />
        </mxCell>
        <mxCell id="7BTVLu-EwjG0xCljd36N-33" style="shape=partialRectangle;connectable=0;fillColor=none;top=0;left=0;bottom=0;right=0;editable=1;overflow=hidden;strokeColor=default;" parent="7BTVLu-EwjG0xCljd36N-32" vertex="1">
          <mxGeometry width="30" height="30" as="geometry">
            <mxRectangle width="30" height="30" as="alternateBounds" />
          </mxGeometry>
        </mxCell>
        <mxCell id="7BTVLu-EwjG0xCljd36N-34" value="rating" style="shape=partialRectangle;connectable=0;fillColor=none;top=0;left=0;bottom=0;right=0;align=left;spacingLeft=6;overflow=hidden;labelBackgroundColor=none;strokeColor=default;" parent="7BTVLu-EwjG0xCljd36N-32" vertex="1">
          <mxGeometry x="30" width="150" height="30" as="geometry">
            <mxRectangle width="150" height="30" as="alternateBounds" />
          </mxGeometry>
        </mxCell>
        <mxCell id="7BTVLu-EwjG0xCljd36N-35" value="string" style="shape=partialRectangle;connectable=0;fillColor=none;top=0;left=0;bottom=0;right=0;align=left;spacingLeft=6;overflow=hidden;labelBackgroundColor=none;strokeColor=default;" parent="7BTVLu-EwjG0xCljd36N-32" vertex="1">
          <mxGeometry x="180" width="150" height="30" as="geometry">
            <mxRectangle width="150" height="30" as="alternateBounds" />
          </mxGeometry>
        </mxCell>
        <mxCell id="7BTVLu-EwjG0xCljd36N-38" style="shape=partialRectangle;collapsible=0;dropTarget=0;pointerEvents=0;fillColor=none;top=0;left=0;bottom=0;right=0;points=[[0,0.5],[1,0.5]];portConstraint=eastwest;strokeColor=default;" parent="7BTVLu-EwjG0xCljd36N-1" vertex="1">
          <mxGeometry y="210" width="330" height="30" as="geometry" />
        </mxCell>
        <mxCell id="7BTVLu-EwjG0xCljd36N-39" value="" style="shape=partialRectangle;connectable=0;fillColor=none;top=0;left=0;bottom=0;right=0;editable=1;overflow=hidden;strokeColor=default;" parent="7BTVLu-EwjG0xCljd36N-38" vertex="1">
          <mxGeometry width="30" height="30" as="geometry">
            <mxRectangle width="30" height="30" as="alternateBounds" />
          </mxGeometry>
        </mxCell>
        <mxCell id="7BTVLu-EwjG0xCljd36N-40" value="address" style="shape=partialRectangle;connectable=0;fillColor=none;top=0;left=0;bottom=0;right=0;align=left;spacingLeft=6;overflow=hidden;strokeColor=default;" parent="7BTVLu-EwjG0xCljd36N-38" vertex="1">
          <mxGeometry x="30" width="150" height="30" as="geometry">
            <mxRectangle width="150" height="30" as="alternateBounds" />
          </mxGeometry>
        </mxCell>
        <mxCell id="7BTVLu-EwjG0xCljd36N-41" value="string" style="shape=partialRectangle;connectable=0;fillColor=none;top=0;left=0;bottom=0;right=0;align=left;spacingLeft=6;overflow=hidden;strokeColor=default;" parent="7BTVLu-EwjG0xCljd36N-38" vertex="1">
          <mxGeometry x="180" width="150" height="30" as="geometry">
            <mxRectangle width="150" height="30" as="alternateBounds" />
          </mxGeometry>
        </mxCell>
        <mxCell id="7BTVLu-EwjG0xCljd36N-42" style="shape=partialRectangle;collapsible=0;dropTarget=0;pointerEvents=0;fillColor=none;top=0;left=0;bottom=0;right=0;points=[[0,0.5],[1,0.5]];portConstraint=eastwest;strokeColor=default;" parent="7BTVLu-EwjG0xCljd36N-1" vertex="1">
          <mxGeometry y="240" width="330" height="30" as="geometry" />
        </mxCell>
        <mxCell id="7BTVLu-EwjG0xCljd36N-43" style="shape=partialRectangle;connectable=0;fillColor=none;top=0;left=0;bottom=0;right=0;editable=1;overflow=hidden;strokeColor=default;" parent="7BTVLu-EwjG0xCljd36N-42" vertex="1">
          <mxGeometry width="30" height="30" as="geometry">
            <mxRectangle width="30" height="30" as="alternateBounds" />
          </mxGeometry>
        </mxCell>
        <mxCell id="7BTVLu-EwjG0xCljd36N-44" value="contact" style="shape=partialRectangle;connectable=0;fillColor=none;top=0;left=0;bottom=0;right=0;align=left;spacingLeft=6;overflow=hidden;strokeColor=default;" parent="7BTVLu-EwjG0xCljd36N-42" vertex="1">
          <mxGeometry x="30" width="150" height="30" as="geometry">
            <mxRectangle width="150" height="30" as="alternateBounds" />
          </mxGeometry>
        </mxCell>
        <mxCell id="7BTVLu-EwjG0xCljd36N-45" value="string" style="shape=partialRectangle;connectable=0;fillColor=none;top=0;left=0;bottom=0;right=0;align=left;spacingLeft=6;overflow=hidden;strokeColor=default;" parent="7BTVLu-EwjG0xCljd36N-42" vertex="1">
          <mxGeometry x="180" width="150" height="30" as="geometry">
            <mxRectangle width="150" height="30" as="alternateBounds" />
          </mxGeometry>
        </mxCell>
        <mxCell id="7BTVLu-EwjG0xCljd36N-46" style="shape=partialRectangle;collapsible=0;dropTarget=0;pointerEvents=0;fillColor=none;top=0;left=0;bottom=0;right=0;points=[[0,0.5],[1,0.5]];portConstraint=eastwest;strokeColor=default;" parent="7BTVLu-EwjG0xCljd36N-1" vertex="1">
          <mxGeometry y="270" width="330" height="30" as="geometry" />
        </mxCell>
        <mxCell id="7BTVLu-EwjG0xCljd36N-47" style="shape=partialRectangle;connectable=0;fillColor=none;top=0;left=0;bottom=0;right=0;editable=1;overflow=hidden;strokeColor=default;" parent="7BTVLu-EwjG0xCljd36N-46" vertex="1">
          <mxGeometry width="30" height="30" as="geometry">
            <mxRectangle width="30" height="30" as="alternateBounds" />
          </mxGeometry>
        </mxCell>
        <mxCell id="7BTVLu-EwjG0xCljd36N-48" value="email" style="shape=partialRectangle;connectable=0;fillColor=none;top=0;left=0;bottom=0;right=0;align=left;spacingLeft=6;overflow=hidden;strokeColor=default;" parent="7BTVLu-EwjG0xCljd36N-46" vertex="1">
          <mxGeometry x="30" width="150" height="30" as="geometry">
            <mxRectangle width="150" height="30" as="alternateBounds" />
          </mxGeometry>
        </mxCell>
        <mxCell id="7BTVLu-EwjG0xCljd36N-49" value="string, nullable" style="shape=partialRectangle;connectable=0;fillColor=none;top=0;left=0;bottom=0;right=0;align=left;spacingLeft=6;overflow=hidden;strokeColor=default;" parent="7BTVLu-EwjG0xCljd36N-46" vertex="1">
          <mxGeometry x="180" width="150" height="30" as="geometry">
            <mxRectangle width="150" height="30" as="alternateBounds" />
          </mxGeometry>
        </mxCell>
        <mxCell id="7BTVLu-EwjG0xCljd36N-50" style="shape=partialRectangle;collapsible=0;dropTarget=0;pointerEvents=0;fillColor=none;top=0;left=0;bottom=0;right=0;points=[[0,0.5],[1,0.5]];portConstraint=eastwest;strokeColor=default;" parent="7BTVLu-EwjG0xCljd36N-1" vertex="1">
          <mxGeometry y="300" width="330" height="30" as="geometry" />
        </mxCell>
        <mxCell id="7BTVLu-EwjG0xCljd36N-51" value="FK" style="shape=partialRectangle;connectable=0;fillColor=none;top=0;left=0;bottom=0;right=0;editable=1;overflow=hidden;fontStyle=1;strokeColor=default;" parent="7BTVLu-EwjG0xCljd36N-50" vertex="1">
          <mxGeometry width="30" height="30" as="geometry">
            <mxRectangle width="30" height="30" as="alternateBounds" />
          </mxGeometry>
        </mxCell>
        <mxCell id="7BTVLu-EwjG0xCljd36N-52" value="barangayid" style="shape=partialRectangle;connectable=0;fillColor=none;top=0;left=0;bottom=0;right=0;align=left;spacingLeft=6;overflow=hidden;strokeColor=default;" parent="7BTVLu-EwjG0xCljd36N-50" vertex="1">
          <mxGeometry x="30" width="150" height="30" as="geometry">
            <mxRectangle width="150" height="30" as="alternateBounds" />
          </mxGeometry>
        </mxCell>
        <mxCell id="7BTVLu-EwjG0xCljd36N-53" value="int" style="shape=partialRectangle;connectable=0;fillColor=none;top=0;left=0;bottom=0;right=0;align=left;spacingLeft=6;overflow=hidden;strokeColor=default;" parent="7BTVLu-EwjG0xCljd36N-50" vertex="1">
          <mxGeometry x="180" width="150" height="30" as="geometry">
            <mxRectangle width="150" height="30" as="alternateBounds" />
          </mxGeometry>
        </mxCell>
        <mxCell id="7BTVLu-EwjG0xCljd36N-54" style="shape=partialRectangle;collapsible=0;dropTarget=0;pointerEvents=0;fillColor=none;top=0;left=0;bottom=0;right=0;points=[[0,0.5],[1,0.5]];portConstraint=eastwest;strokeColor=default;" parent="7BTVLu-EwjG0xCljd36N-1" vertex="1">
          <mxGeometry y="330" width="330" height="30" as="geometry" />
        </mxCell>
        <mxCell id="7BTVLu-EwjG0xCljd36N-55" value="FK" style="shape=partialRectangle;connectable=0;fillColor=none;top=0;left=0;bottom=0;right=0;editable=1;overflow=hidden;fontStyle=1;strokeColor=default;" parent="7BTVLu-EwjG0xCljd36N-54" vertex="1">
          <mxGeometry width="30" height="30" as="geometry">
            <mxRectangle width="30" height="30" as="alternateBounds" />
          </mxGeometry>
        </mxCell>
        <mxCell id="7BTVLu-EwjG0xCljd36N-56" value="cityid" style="shape=partialRectangle;connectable=0;fillColor=none;top=0;left=0;bottom=0;right=0;align=left;spacingLeft=6;overflow=hidden;strokeColor=default;" parent="7BTVLu-EwjG0xCljd36N-54" vertex="1">
          <mxGeometry x="30" width="150" height="30" as="geometry">
            <mxRectangle width="150" height="30" as="alternateBounds" />
          </mxGeometry>
        </mxCell>
        <mxCell id="7BTVLu-EwjG0xCljd36N-57" value="int" style="shape=partialRectangle;connectable=0;fillColor=none;top=0;left=0;bottom=0;right=0;align=left;spacingLeft=6;overflow=hidden;strokeColor=default;" parent="7BTVLu-EwjG0xCljd36N-54" vertex="1">
          <mxGeometry x="180" width="150" height="30" as="geometry">
            <mxRectangle width="150" height="30" as="alternateBounds" />
          </mxGeometry>
        </mxCell>
        <mxCell id="7BTVLu-EwjG0xCljd36N-37" style="edgeStyle=orthogonalEdgeStyle;rounded=0;orthogonalLoop=1;jettySize=auto;html=1;strokeColor=default;" parent="1" source="7BTVLu-EwjG0xCljd36N-36" target="7BTVLu-EwjG0xCljd36N-32" edge="1">
          <mxGeometry relative="1" as="geometry" />
        </mxCell>
        <mxCell id="7BTVLu-EwjG0xCljd36N-36" value="&lt;span&gt;maganda ata may field rin tyo for feedback/comments ng customers since google play pwde mag iwan ng comment aside from ratings&lt;/span&gt;" style="shape=note;size=20;whiteSpace=wrap;html=1;strokeColor=default;" parent="1" vertex="1">
          <mxGeometry x="770" y="100" width="150" height="160" as="geometry" />
        </mxCell>
        <mxCell id="7BTVLu-EwjG0xCljd36N-72" value="tblOwner" style="shape=table;startSize=30;container=1;collapsible=1;childLayout=tableLayout;fixedRows=1;rowLines=0;fontStyle=1;align=center;resizeLast=1;labelBackgroundColor=none;fillColor=default;strokeColor=default;" parent="1" vertex="1">
          <mxGeometry x="-70" y="100" width="330" height="310" as="geometry" />
        </mxCell>
        <mxCell id="7BTVLu-EwjG0xCljd36N-73" value="" style="shape=partialRectangle;collapsible=0;dropTarget=0;pointerEvents=0;fillColor=none;top=0;left=0;bottom=1;right=0;points=[[0,0.5],[1,0.5]];portConstraint=eastwest;labelBackgroundColor=none;strokeColor=default;" parent="7BTVLu-EwjG0xCljd36N-72" vertex="1">
          <mxGeometry y="30" width="330" height="30" as="geometry" />
        </mxCell>
        <mxCell id="7BTVLu-EwjG0xCljd36N-74" value="PK" style="shape=partialRectangle;connectable=0;fillColor=none;top=0;left=0;bottom=0;right=0;fontStyle=1;overflow=hidden;labelBackgroundColor=none;strokeColor=default;" parent="7BTVLu-EwjG0xCljd36N-73" vertex="1">
          <mxGeometry width="30" height="30" as="geometry">
            <mxRectangle width="30" height="30" as="alternateBounds" />
          </mxGeometry>
        </mxCell>
        <mxCell id="7BTVLu-EwjG0xCljd36N-75" value="userid" style="shape=partialRectangle;connectable=0;fillColor=none;top=0;left=0;bottom=0;right=0;align=left;spacingLeft=6;fontStyle=5;overflow=hidden;labelBackgroundColor=none;strokeColor=default;" parent="7BTVLu-EwjG0xCljd36N-73" vertex="1">
          <mxGeometry x="30" width="150" height="30" as="geometry">
            <mxRectangle width="150" height="30" as="alternateBounds" />
          </mxGeometry>
        </mxCell>
        <mxCell id="7BTVLu-EwjG0xCljd36N-86" value="int, auto increment" style="shape=partialRectangle;connectable=0;fillColor=none;top=0;left=0;bottom=0;right=0;align=left;spacingLeft=6;fontStyle=5;overflow=hidden;labelBackgroundColor=none;strokeColor=default;" parent="7BTVLu-EwjG0xCljd36N-73" vertex="1">
          <mxGeometry x="180" width="150" height="30" as="geometry">
            <mxRectangle width="150" height="30" as="alternateBounds" />
          </mxGeometry>
        </mxCell>
        <mxCell id="7BTVLu-EwjG0xCljd36N-76" value="" style="shape=partialRectangle;collapsible=0;dropTarget=0;pointerEvents=0;fillColor=none;top=0;left=0;bottom=0;right=0;points=[[0,0.5],[1,0.5]];portConstraint=eastwest;labelBackgroundColor=none;strokeColor=default;" parent="7BTVLu-EwjG0xCljd36N-72" vertex="1">
          <mxGeometry y="60" width="330" height="30" as="geometry" />
        </mxCell>
        <mxCell id="7BTVLu-EwjG0xCljd36N-77" value="" style="shape=partialRectangle;connectable=0;fillColor=none;top=0;left=0;bottom=0;right=0;editable=1;overflow=hidden;labelBackgroundColor=none;strokeColor=default;" parent="7BTVLu-EwjG0xCljd36N-76" vertex="1">
          <mxGeometry width="30" height="30" as="geometry">
            <mxRectangle width="30" height="30" as="alternateBounds" />
          </mxGeometry>
        </mxCell>
        <mxCell id="7BTVLu-EwjG0xCljd36N-78" value="giveName" style="shape=partialRectangle;connectable=0;fillColor=none;top=0;left=0;bottom=0;right=0;align=left;spacingLeft=6;overflow=hidden;labelBackgroundColor=none;strokeColor=default;" parent="7BTVLu-EwjG0xCljd36N-76" vertex="1">
          <mxGeometry x="30" width="150" height="30" as="geometry">
            <mxRectangle width="150" height="30" as="alternateBounds" />
          </mxGeometry>
        </mxCell>
        <mxCell id="7BTVLu-EwjG0xCljd36N-87" value="string" style="shape=partialRectangle;connectable=0;fillColor=none;top=0;left=0;bottom=0;right=0;align=left;spacingLeft=6;overflow=hidden;labelBackgroundColor=none;strokeColor=default;" parent="7BTVLu-EwjG0xCljd36N-76" vertex="1">
          <mxGeometry x="180" width="150" height="30" as="geometry">
            <mxRectangle width="150" height="30" as="alternateBounds" />
          </mxGeometry>
        </mxCell>
        <mxCell id="7BTVLu-EwjG0xCljd36N-79" value="" style="shape=partialRectangle;collapsible=0;dropTarget=0;pointerEvents=0;fillColor=none;top=0;left=0;bottom=0;right=0;points=[[0,0.5],[1,0.5]];portConstraint=eastwest;labelBackgroundColor=none;strokeColor=default;" parent="7BTVLu-EwjG0xCljd36N-72" vertex="1">
          <mxGeometry y="90" width="330" height="30" as="geometry" />
        </mxCell>
        <mxCell id="7BTVLu-EwjG0xCljd36N-80" value="" style="shape=partialRectangle;connectable=0;fillColor=none;top=0;left=0;bottom=0;right=0;editable=1;overflow=hidden;labelBackgroundColor=none;strokeColor=default;" parent="7BTVLu-EwjG0xCljd36N-79" vertex="1">
          <mxGeometry width="30" height="30" as="geometry">
            <mxRectangle width="30" height="30" as="alternateBounds" />
          </mxGeometry>
        </mxCell>
        <mxCell id="7BTVLu-EwjG0xCljd36N-81" value="familName" style="shape=partialRectangle;connectable=0;fillColor=none;top=0;left=0;bottom=0;right=0;align=left;spacingLeft=6;overflow=hidden;labelBackgroundColor=none;strokeColor=default;" parent="7BTVLu-EwjG0xCljd36N-79" vertex="1">
          <mxGeometry x="30" width="150" height="30" as="geometry">
            <mxRectangle width="150" height="30" as="alternateBounds" />
          </mxGeometry>
        </mxCell>
        <mxCell id="7BTVLu-EwjG0xCljd36N-88" value="string" style="shape=partialRectangle;connectable=0;fillColor=none;top=0;left=0;bottom=0;right=0;align=left;spacingLeft=6;overflow=hidden;labelBackgroundColor=none;strokeColor=default;" parent="7BTVLu-EwjG0xCljd36N-79" vertex="1">
          <mxGeometry x="180" width="150" height="30" as="geometry">
            <mxRectangle width="150" height="30" as="alternateBounds" />
          </mxGeometry>
        </mxCell>
        <mxCell id="7BTVLu-EwjG0xCljd36N-82" value="" style="shape=partialRectangle;collapsible=0;dropTarget=0;pointerEvents=0;fillColor=none;top=0;left=0;bottom=0;right=0;points=[[0,0.5],[1,0.5]];portConstraint=eastwest;labelBackgroundColor=none;strokeColor=default;" parent="7BTVLu-EwjG0xCljd36N-72" vertex="1">
          <mxGeometry y="120" width="330" height="30" as="geometry" />
        </mxCell>
        <mxCell id="7BTVLu-EwjG0xCljd36N-83" value="" style="shape=partialRectangle;connectable=0;fillColor=none;top=0;left=0;bottom=0;right=0;editable=1;overflow=hidden;labelBackgroundColor=none;strokeColor=default;" parent="7BTVLu-EwjG0xCljd36N-82" vertex="1">
          <mxGeometry width="30" height="30" as="geometry">
            <mxRectangle width="30" height="30" as="alternateBounds" />
          </mxGeometry>
        </mxCell>
        <mxCell id="7BTVLu-EwjG0xCljd36N-84" value="email" style="shape=partialRectangle;connectable=0;fillColor=none;top=0;left=0;bottom=0;right=0;align=left;spacingLeft=6;overflow=hidden;labelBackgroundColor=none;strokeColor=default;" parent="7BTVLu-EwjG0xCljd36N-82" vertex="1">
          <mxGeometry x="30" width="150" height="30" as="geometry">
            <mxRectangle width="150" height="30" as="alternateBounds" />
          </mxGeometry>
        </mxCell>
        <mxCell id="7BTVLu-EwjG0xCljd36N-89" value="string" style="shape=partialRectangle;connectable=0;fillColor=none;top=0;left=0;bottom=0;right=0;align=left;spacingLeft=6;overflow=hidden;labelBackgroundColor=none;strokeColor=default;" parent="7BTVLu-EwjG0xCljd36N-82" vertex="1">
          <mxGeometry x="180" width="150" height="30" as="geometry">
            <mxRectangle width="150" height="30" as="alternateBounds" />
          </mxGeometry>
        </mxCell>
        <mxCell id="nC-oUk_ZlEmWOEXdLKIX-1" style="shape=partialRectangle;collapsible=0;dropTarget=0;pointerEvents=0;fillColor=none;top=0;left=0;bottom=0;right=0;points=[[0,0.5],[1,0.5]];portConstraint=eastwest;labelBackgroundColor=none;strokeColor=default;" vertex="1" parent="7BTVLu-EwjG0xCljd36N-72">
          <mxGeometry y="150" width="330" height="30" as="geometry" />
        </mxCell>
        <mxCell id="nC-oUk_ZlEmWOEXdLKIX-2" style="shape=partialRectangle;connectable=0;fillColor=none;top=0;left=0;bottom=0;right=0;editable=1;overflow=hidden;labelBackgroundColor=none;strokeColor=default;" vertex="1" parent="nC-oUk_ZlEmWOEXdLKIX-1">
          <mxGeometry width="30" height="30" as="geometry">
            <mxRectangle width="30" height="30" as="alternateBounds" />
          </mxGeometry>
        </mxCell>
        <mxCell id="nC-oUk_ZlEmWOEXdLKIX-3" value="contact" style="shape=partialRectangle;connectable=0;fillColor=none;top=0;left=0;bottom=0;right=0;align=left;spacingLeft=6;overflow=hidden;labelBackgroundColor=none;strokeColor=default;" vertex="1" parent="nC-oUk_ZlEmWOEXdLKIX-1">
          <mxGeometry x="30" width="150" height="30" as="geometry">
            <mxRectangle width="150" height="30" as="alternateBounds" />
          </mxGeometry>
        </mxCell>
        <mxCell id="nC-oUk_ZlEmWOEXdLKIX-4" style="shape=partialRectangle;connectable=0;fillColor=none;top=0;left=0;bottom=0;right=0;align=left;spacingLeft=6;overflow=hidden;labelBackgroundColor=none;strokeColor=default;" vertex="1" parent="nC-oUk_ZlEmWOEXdLKIX-1">
          <mxGeometry x="180" width="150" height="30" as="geometry">
            <mxRectangle width="150" height="30" as="alternateBounds" />
          </mxGeometry>
        </mxCell>
        <mxCell id="nC-oUk_ZlEmWOEXdLKIX-5" style="shape=partialRectangle;collapsible=0;dropTarget=0;pointerEvents=0;fillColor=none;top=0;left=0;bottom=0;right=0;points=[[0,0.5],[1,0.5]];portConstraint=eastwest;labelBackgroundColor=none;strokeColor=default;" vertex="1" parent="7BTVLu-EwjG0xCljd36N-72">
          <mxGeometry y="180" width="330" height="30" as="geometry" />
        </mxCell>
        <mxCell id="nC-oUk_ZlEmWOEXdLKIX-6" style="shape=partialRectangle;connectable=0;fillColor=none;top=0;left=0;bottom=0;right=0;editable=1;overflow=hidden;labelBackgroundColor=none;strokeColor=default;" vertex="1" parent="nC-oUk_ZlEmWOEXdLKIX-5">
          <mxGeometry width="30" height="30" as="geometry">
            <mxRectangle width="30" height="30" as="alternateBounds" />
          </mxGeometry>
        </mxCell>
        <mxCell id="nC-oUk_ZlEmWOEXdLKIX-7" style="shape=partialRectangle;connectable=0;fillColor=none;top=0;left=0;bottom=0;right=0;align=left;spacingLeft=6;overflow=hidden;labelBackgroundColor=none;strokeColor=default;" vertex="1" parent="nC-oUk_ZlEmWOEXdLKIX-5">
          <mxGeometry x="30" width="150" height="30" as="geometry">
            <mxRectangle width="150" height="30" as="alternateBounds" />
          </mxGeometry>
        </mxCell>
        <mxCell id="nC-oUk_ZlEmWOEXdLKIX-8" style="shape=partialRectangle;connectable=0;fillColor=none;top=0;left=0;bottom=0;right=0;align=left;spacingLeft=6;overflow=hidden;labelBackgroundColor=none;strokeColor=default;" vertex="1" parent="nC-oUk_ZlEmWOEXdLKIX-5">
          <mxGeometry x="180" width="150" height="30" as="geometry">
            <mxRectangle width="150" height="30" as="alternateBounds" />
          </mxGeometry>
        </mxCell>
        <mxCell id="nC-oUk_ZlEmWOEXdLKIX-9" style="shape=partialRectangle;collapsible=0;dropTarget=0;pointerEvents=0;fillColor=none;top=0;left=0;bottom=0;right=0;points=[[0,0.5],[1,0.5]];portConstraint=eastwest;labelBackgroundColor=none;strokeColor=default;" vertex="1" parent="7BTVLu-EwjG0xCljd36N-72">
          <mxGeometry y="210" width="330" height="30" as="geometry" />
        </mxCell>
        <mxCell id="nC-oUk_ZlEmWOEXdLKIX-10" style="shape=partialRectangle;connectable=0;fillColor=none;top=0;left=0;bottom=0;right=0;editable=1;overflow=hidden;labelBackgroundColor=none;strokeColor=default;" vertex="1" parent="nC-oUk_ZlEmWOEXdLKIX-9">
          <mxGeometry width="30" height="30" as="geometry">
            <mxRectangle width="30" height="30" as="alternateBounds" />
          </mxGeometry>
        </mxCell>
        <mxCell id="nC-oUk_ZlEmWOEXdLKIX-11" style="shape=partialRectangle;connectable=0;fillColor=none;top=0;left=0;bottom=0;right=0;align=left;spacingLeft=6;overflow=hidden;labelBackgroundColor=none;strokeColor=default;" vertex="1" parent="nC-oUk_ZlEmWOEXdLKIX-9">
          <mxGeometry x="30" width="150" height="30" as="geometry">
            <mxRectangle width="150" height="30" as="alternateBounds" />
          </mxGeometry>
        </mxCell>
        <mxCell id="nC-oUk_ZlEmWOEXdLKIX-12" style="shape=partialRectangle;connectable=0;fillColor=none;top=0;left=0;bottom=0;right=0;align=left;spacingLeft=6;overflow=hidden;labelBackgroundColor=none;strokeColor=default;" vertex="1" parent="nC-oUk_ZlEmWOEXdLKIX-9">
          <mxGeometry x="180" width="150" height="30" as="geometry">
            <mxRectangle width="150" height="30" as="alternateBounds" />
          </mxGeometry>
        </mxCell>
        <mxCell id="nC-oUk_ZlEmWOEXdLKIX-13" style="shape=partialRectangle;collapsible=0;dropTarget=0;pointerEvents=0;fillColor=none;top=0;left=0;bottom=0;right=0;points=[[0,0.5],[1,0.5]];portConstraint=eastwest;labelBackgroundColor=none;strokeColor=default;" vertex="1" parent="7BTVLu-EwjG0xCljd36N-72">
          <mxGeometry y="240" width="330" height="30" as="geometry" />
        </mxCell>
        <mxCell id="nC-oUk_ZlEmWOEXdLKIX-14" style="shape=partialRectangle;connectable=0;fillColor=none;top=0;left=0;bottom=0;right=0;editable=1;overflow=hidden;labelBackgroundColor=none;strokeColor=default;" vertex="1" parent="nC-oUk_ZlEmWOEXdLKIX-13">
          <mxGeometry width="30" height="30" as="geometry">
            <mxRectangle width="30" height="30" as="alternateBounds" />
          </mxGeometry>
        </mxCell>
        <mxCell id="nC-oUk_ZlEmWOEXdLKIX-15" style="shape=partialRectangle;connectable=0;fillColor=none;top=0;left=0;bottom=0;right=0;align=left;spacingLeft=6;overflow=hidden;labelBackgroundColor=none;strokeColor=default;" vertex="1" parent="nC-oUk_ZlEmWOEXdLKIX-13">
          <mxGeometry x="30" width="150" height="30" as="geometry">
            <mxRectangle width="150" height="30" as="alternateBounds" />
          </mxGeometry>
        </mxCell>
        <mxCell id="nC-oUk_ZlEmWOEXdLKIX-16" style="shape=partialRectangle;connectable=0;fillColor=none;top=0;left=0;bottom=0;right=0;align=left;spacingLeft=6;overflow=hidden;labelBackgroundColor=none;strokeColor=default;" vertex="1" parent="nC-oUk_ZlEmWOEXdLKIX-13">
          <mxGeometry x="180" width="150" height="30" as="geometry">
            <mxRectangle width="150" height="30" as="alternateBounds" />
          </mxGeometry>
        </mxCell>
        <mxCell id="nC-oUk_ZlEmWOEXdLKIX-17" style="shape=partialRectangle;collapsible=0;dropTarget=0;pointerEvents=0;fillColor=none;top=0;left=0;bottom=0;right=0;points=[[0,0.5],[1,0.5]];portConstraint=eastwest;labelBackgroundColor=none;strokeColor=default;" vertex="1" parent="7BTVLu-EwjG0xCljd36N-72">
          <mxGeometry y="270" width="330" height="30" as="geometry" />
        </mxCell>
        <mxCell id="nC-oUk_ZlEmWOEXdLKIX-18" style="shape=partialRectangle;connectable=0;fillColor=none;top=0;left=0;bottom=0;right=0;editable=1;overflow=hidden;labelBackgroundColor=none;strokeColor=default;" vertex="1" parent="nC-oUk_ZlEmWOEXdLKIX-17">
          <mxGeometry width="30" height="30" as="geometry">
            <mxRectangle width="30" height="30" as="alternateBounds" />
          </mxGeometry>
        </mxCell>
        <mxCell id="nC-oUk_ZlEmWOEXdLKIX-19" style="shape=partialRectangle;connectable=0;fillColor=none;top=0;left=0;bottom=0;right=0;align=left;spacingLeft=6;overflow=hidden;labelBackgroundColor=none;strokeColor=default;" vertex="1" parent="nC-oUk_ZlEmWOEXdLKIX-17">
          <mxGeometry x="30" width="150" height="30" as="geometry">
            <mxRectangle width="150" height="30" as="alternateBounds" />
          </mxGeometry>
        </mxCell>
        <mxCell id="nC-oUk_ZlEmWOEXdLKIX-20" style="shape=partialRectangle;connectable=0;fillColor=none;top=0;left=0;bottom=0;right=0;align=left;spacingLeft=6;overflow=hidden;labelBackgroundColor=none;strokeColor=default;" vertex="1" parent="nC-oUk_ZlEmWOEXdLKIX-17">
          <mxGeometry x="180" width="150" height="30" as="geometry">
            <mxRectangle width="150" height="30" as="alternateBounds" />
          </mxGeometry>
        </mxCell>
        <mxCell id="7BTVLu-EwjG0xCljd36N-85" style="edgeStyle=orthogonalEdgeStyle;rounded=0;orthogonalLoop=1;jettySize=auto;html=1;strokeColor=default;" parent="1" source="7BTVLu-EwjG0xCljd36N-73" target="7BTVLu-EwjG0xCljd36N-8" edge="1">
          <mxGeometry relative="1" as="geometry" />
        </mxCell>
      </root>
    </mxGraphModel>
  </diagram>
</mxfile>
